<?xml version="1.0" standalone="no"?>
<!DOCTYPE svg PUBLIC "-//W3C//DTD SVG 1.1//EN" "http://www.w3.org/Graphics/SVG/1.1/DTD/svg11.dtd" >
<!--
2013-9-30: Created.
-->
<svg>
<metadata>
Created by iconfont
</metadata>
<defs>

<font id="iconfont" horiz-adv-x="1024" >
  <font-face
    font-family="iconfont"
    font-weight="500"
    font-stretch="normal"
    units-per-em="1024"
    ascent="896"
    descent="-128"
  />
    <missing-glyph />
    
    <glyph glyph-name="x" unicode="x" horiz-adv-x="1001"
d="M281 543q-27 -1 -53 -1h-83q-18 0 -36.5 -6t-32.5 -18.5t-23 -32t-9 -45.5v-76h912v41q0 16 -0.5 30t-0.5 18q0 13 -5 29t-17 29.5t-31.5 22.5t-49.5 9h-133v-97h-438v97zM955 310v-52q0 -23 0.5 -52t0.5 -58t-10.5 -47.5t-26 -30t-33 -16t-31.5 -4.5q-14 -1 -29.5 -0.5
t-29.5 0.5h-32l-45 128h-439l-44 -128h-29h-34q-20 0 -45 1q-25 0 -41 9.5t-25.5 23t-13.5 29.5t-4 30v167h911zM163 247q-12 0 -21 -8.5t-9 -21.5t9 -21.5t21 -8.5q13 0 22 8.5t9 21.5t-9 21.5t-22 8.5zM316 123q-8 -26 -14 -48q-5 -19 -10.5 -37t-7.5 -25t-3 -15t1 -14.5
t9.5 -10.5t21.5 -4h37h67h81h80h64h36q23 0 34 12t2 38q-5 13 -9.5 30.5t-9.5 34.5q-5 19 -11 39h-368zM336 498v228q0 11 2.5 23t10 21.5t20.5 15.5t34 6h188q31 0 51.5 -14.5t20.5 -52.5v-227h-327z" />
    

    
    <glyph glyph-name="zhiyezixun" unicode="&#58895;" d="M278.79424 412.78464c-42.61888 0-77.21984 46.06976-77.21984 102.95296 0 47.22688 23.8592 87.04 56.3712 99.16416 6.26688 2.33472 11.04896 7.26016 13.78304 13.3632C309.92384 713.23648 402.40128 773.12 510.44352 773.12c108.04224 0 200.56064-59.93472 238.70464-144.85504 2.74432-6.10304 7.5264-11.02848 13.78304-13.3632 32.512-12.12416 56.36096-51.93728 56.36096-99.16416 0-56.8832-34.59072-102.95296-77.2096-102.95296h-0.89088a24.84224 24.84224 0 0 0-24.84224 24.84224V541.48096c0 98.21184-91.05408 180.16256-205.90592 180.16256-114.8416 0-205.90592-81.95072-205.90592-180.16256v-103.84384a24.84224 24.84224 0 0 0-24.84224-24.84224h-0.90112zM173.2608 15.360000000000014a23.0912 23.0912 0 0 0-23.11168 22.39488 96.7168 96.7168 0 0 0-0.04096 3.34848c0 108.7488 65.60768 204.40064 164.72064 259.42016 7.55712 4.1984 16.80384 3.30752 23.99232-1.50528a307.54816 307.54816 0 0 1 171.6224-52.0192 307.38432 307.38432 0 0 1 171.6224 52.0192c7.18848 4.8128 16.42496 5.70368 23.98208 1.50528 99.1232-55.00928 164.72064-150.67136 164.72064-259.42016l-0.02048-3.11296c-0.14336-12.60544-10.53696-22.6304-23.1424-22.6304H173.2608zM573.00992 371.31264c-2.68288-5.12-8.9088-8.59136-16.4864-8.59136h-35.84c-9.55392 0-17.92 6.20544-17.92 14.32576 0 7.63904 7.76192 14.32576 17.92 14.32576h35.84c5.07904 0 9.70752-1.82272 13.03552-4.68992 29.73696 5.44768 87.38816 22.79424 110.3872 42.72128a179.52768 179.52768 0 0 1 10.67008 60.60032c0 99.50208-80.66048 180.1728-180.1728 180.1728-99.50208 0-180.16256-80.66048-180.16256-180.1728 0-99.50208 80.66048-180.16256 180.16256-180.16256 68.56704 0 128.17408 38.30784 158.6176 94.68928-26.61376-12.66688-70.26688-27.66848-96.0512-33.21856z"  horiz-adv-x="1024" />

    
    <glyph glyph-name="zhiyekecheng" unicode="&#58896;" d="M294.59456 98.48832000000004c0-22.5792-16.59904-40.88832-39.17824-40.88832h-42.15808c-22.5792 0-39.17824 18.30912-39.17824 40.88832v37.46816h120.51456v-37.46816z m0 0M174.08 503.4496h120.51456v-326.62528H174.08zM294.59456 546.02752L174.08 544.74752v42.15808c0 22.5792 16.59904 40.87808 39.17824 40.87808h42.15808c22.5792 0 39.17824-18.29888 39.17824-40.87808v-40.87808z m0 0M500.69504 98.48832000000004a40.88832 40.88832 0 0 0-40.88832-40.88832H375.5008c-22.5792 0-37.46816 18.30912-37.46816 40.88832v37.03808h162.6624v-37.03808z m0 0M500.69504 178.11455999999998l-162.6624 0.43008V586.48576h162.6624v-408.3712z m0 0M500.69504 626.93376l-162.6624 1.28v42.58816c0 22.5792 14.88896 40.88832 37.46816 40.88832h84.30592a40.88832 40.88832 0 0 0 40.88832-40.88832v-43.86816z m0 0M745.97376 97.20831999999996A40.87808 40.87808 0 0 0 705.09568 56.32000000000005h-123.4944a40.87808 40.87808 0 0 0-40.87808 40.88832V586.48576a40.87808 40.87808 0 0 0 40.87808 40.88832h123.48416a40.87808 40.87808 0 0 0 40.87808-40.88832v-489.27744z m0 0M868.61824 97.20831999999996c0-22.5792-15.74912-40.88832-38.32832-40.88832h-6.37952c-22.5792 0-36.62848 16.59904-36.62848 39.17824h0.01024v80.90624l81.33632 1.71008v-80.90624z m0 0M868.61824 221.12256000000002l-81.34656-1.69984V339.5072l81.34656 0.41984v-118.80448z m0 0M868.61824 382.93503999999996h-81.34656v80.47616c0 22.56896 14.04928 42.58816 36.62848 42.58816h6.37952c22.5792 0 38.32832-18.30912 38.32832-40.87808v-82.18624z m0 0"  horiz-adv-x="1024" />

    
    <glyph glyph-name="zhiyedaoshi" unicode="&#58897;" d="M254.49472 248.50090666999995c57.30304 21.32992 88.17664 31.83616 99.31776 35.33824a97.39264 97.39264 0 0 1 28.96896 13.056 63.72352 63.72352 0 0 1 13.69088 11.14112v1.91488a46.42816 46.42816 0 0 0-3.18464 14.6432 32.31744 32.31744 0 0 0 0 7.95648l-12.72832 11.776a85.99552 85.99552 0 0 0-20.69504 29.2864c-3.18464 7.63904-6.36928 14.96064-8.91904 22.91712v5.7344a109.7728 109.7728 0 0 0-16.2304 18.14528 105.5744 105.5744 0 0 0-15.27808 34.06848 113.54112 113.54112 0 0 0-5.41696 46.7968c1.04448 9.45152 3.1744 18.7392 6.36928 27.6992a95.0272 95.0272 0 0 0 5.41696 13.056c0.1024 16.92672 1.26976 33.83296 3.50208 50.61632 1.9968 17.38752 5.18144 34.62144 9.55392 51.56864h-6.36928c-8.01792-0.09216-16.01536-0.95232-23.87968-2.54976-8.32512-1.47456-16.44544-3.93216-24.18688-7.3216-8.46848-4.11648-16.47616-9.13408-23.87968-14.96064a95.66208 95.66208 0 0 1-21.32992-24.18688 129.8944 129.8944 0 0 1-15.60576-35.33824 247.64416 247.64416 0 0 1-7.3216-37.24288 300.3904 300.3904 0 0 1-1.91488-41.37984 46.85824 46.85824 0 0 1-8.91904-24.19712 48.7936 48.7936 0 0 1 0-16.54784c1.39264-4.9664 3.54304-9.69728 6.36928-14.00832 1.90464-2.72384 4.02432-5.28384 6.36928-7.63904 2.23232-1.6384 4.70016-2.92864 7.3216-3.81952l4.78208-16.55808c1.90464-4.77184 3.50208-9.23648 5.7344-14.00832 1.60768-3.93216 3.9936-7.50592 7.00416-10.50624a167.7312 167.7312 0 0 0 15.27808-14.6432c5.02784-5.45792 7.76192-12.63616 7.63904-20.06016v-14.96064c0.06144-4.6592-0.68608-9.29792-2.23232-13.69088a42.3936 42.3936 0 0 0-7.95648-13.056 77.21984 77.21984 0 0 0-16.54784-13.69088 114.01216 114.01216 0 0 0-31.83616-14.00832c-8.27392-2.23232-36.92544-12.73856-56.34048-19.74272v-134.97344h2.8672c0 7.95648 1.91488 16.86528 3.50208 28.65152v3.18464a110.848 110.848 0 0 0 36.608 70.67648 173.1584 173.1584 0 0 0 56.34048 29.60384h4.13696v1.25952z m609.92512 21.32992a273.70496 273.70496 0 0 0-27.37152 9.22624 80.52736 80.52736 0 0 0-21.64736 13.69088 48.40448 48.40448 0 0 0-11.776 15.9232 51.67104 51.67104 0 0 0-3.81952 16.86528 66.51904 66.51904 0 0 0 3.81952 27.37152c1.23904 2.9184 2.95936 5.61152 5.09952 7.95648a34.0992 34.0992 0 0 0 7.3216 6.05184l8.27392 7.3216a31.8464 31.8464 0 0 1 7.3216 10.82368c2.23232 4.42368 4.1472 8.99072 5.7344 13.69088 0 5.41696 3.18464 11.14112 4.4544 16.87552 3.64544 1.19808 7.0144 3.15392 9.87136 5.7344a42.2912 42.2912 0 0 1 7.00416 10.82368 57.2416 57.2416 0 0 1 4.77184 18.14528 56.5248 56.5248 0 0 1 0 14.6432 58.04032 58.04032 0 0 1-3.50208 9.55392 12.45184 12.45184 0 0 1-4.77184 6.68672 283.4432 283.4432 0 0 1-2.54976 43.29472 278.20032 278.20032 0 0 1-8.59136 39.15776 137.1136 137.1136 0 0 1-20.69504 37.888 72.17152 72.17152 0 0 1-14.6432 14.96064 137.216 137.216 0 0 1-45.52704 23.23456 102.08256 102.08256 0 0 1-27.68896 3.81952h-12.73856c4.5056-15.74912 7.80288-31.81568 9.87136-48.06656 2.23232-16.04608 3.51232-32.19456 3.81952-48.384 5.5296-9.91232 9.40032-20.66432 11.45856-31.83616a120.2688 120.2688 0 0 0 0-35.65568 139.73504 139.73504 0 0 0-10.50624-39.15776 92.99968 92.99968 0 0 0-24.51456-31.83616l-2.23232-7.00416v-1.90464c-2.9696-7.63904-6.15424-15.27808-9.55392-22.91712a95.54944 95.54944 0 0 0-29.60384-38.84032v-14.00832c0.03072-6.18496-1.3824-12.288-4.13696-17.82784a72.62208 72.62208 0 0 1 17.18272-10.1888c10.30144-4.46464 20.95104-8.07936 31.83616-10.82368 10.9056-3.33824 21.54496-7.48544 31.83616-12.41088l31.83616-14.6432 18.14528-7.95648a171.64288 171.64288 0 0 0 43.9296-25.78432 116.21376 116.21376 0 0 0 33.7408-52.20352c3.60448-12.35968 5.94944-25.04704 7.00416-37.87776a58.7776 58.7776 0 0 0 1.91488-15.9232h1.91488V257.10250667a338.66752 338.66752 0 0 1-31.83616 12.73856h9.54368z m0 0M850.7392 152.36778667a70.02112 70.02112 0 0 1-21.01248 31.83616 149.23776 149.23776 0 0 1-33.7408 19.74272c-12.41088 5.08928-67.16416 31.83616-80.85504 34.05824a331.40736 331.40736 0 0 0-37.87776 13.056 103.61856 103.61856 0 0 0-29.60384 18.78016 63.71328 63.71328 0 0 0-15.91296 21.9648 63.77472 63.77472 0 0 0-5.41696 22.91712 90.56256 90.56256 0 0 0 6.05184 38.1952 35.1232 35.1232 0 0 0 7.00416 10.82368c2.88768 3.08224 6.0928 5.85728 9.55392 8.27392a90.68544 90.68544 0 0 1 11.776 10.1888c4.18816 4.15744 7.6288 9.00096 10.1888 14.32576 2.8672 6.36928 5.40672 12.73856 7.95648 19.0976 2.54976 6.36928 4.13696 15.27808 6.05184 22.91712a31.82592 31.82592 0 0 1 11.14112 8.27392c4.20864 4.25984 7.64928 9.216 10.1888 14.6432a82.40128 82.40128 0 0 1 6.36928 24.832 60.50816 60.50816 0 0 1 0 20.06016 55.5008 55.5008 0 0 1-4.4544 13.37344 17.48992 17.48992 0 0 1-6.68672 9.22624 370.87232 370.87232 0 0 1-3.50208 59.52512 287.19104 287.19104 0 0 1-12.09344 53.80096 171.91936 171.91936 0 0 1-25.78432 52.52096 103.0144 103.0144 0 0 1-20.3776 20.3776 147.29216 147.29216 0 0 1-28.01664 18.46272 226.9184 226.9184 0 0 1-34.37568 13.056A140.00128 140.00128 0 0 1 539.10528 751.7866666699999a194.2528 194.2528 0 0 1-31.83616-3.18464c-10.97728-2.10944-21.66784-5.5296-31.83616-10.1888a148.36736 148.36736 0 0 1-65.8944-53.80096 167.59808 167.59808 0 0 1-21.00224-48.384 381.91104 381.91104 0 0 1-10.82368-107.28448 56.07424 56.07424 0 0 1-8.27392-15.59552 82.05312 82.05312 0 0 1-5.09952-16.2304 57.856 57.856 0 0 1 2.54976-22.59968c1.56672-6.92224 4.37248-13.49632 8.27392-19.41504 2.68288-3.7376 5.66272-7.24992 8.9088-10.50624 2.93888-2.31424 6.28736-4.0448 9.87136-5.09952l7.00416-23.23456c2.23232-6.36928 4.77184-12.72832 7.3216-18.78016a43.52 43.52 0 0 1 9.87136-14.6432 272.75264 272.75264 0 0 0 21.01248-20.04992 42.32192 42.32192 0 0 0 10.82368-27.38176v-21.00224a63.60064 63.60064 0 0 0-3.18464-18.78016 63.5904 63.5904 0 0 0-11.14112-17.82784 104.50944 104.50944 0 0 0-22.28224-18.46272 132.22912 132.22912 0 0 0-41.69728-19.41504c-16.2304-4.4544-85.62688-30.23872-100.59776-35.97312a125.11232 125.11232 0 0 1-39.15776-21.9648 69.44768 69.44768 0 0 1-20.69504-41.69728 168.192 168.192 0 0 1-2.8672-57.30304 61.07136 61.07136 0 0 1 11.14112-36.29056 139.0592 139.0592 0 0 1 35.97312-12.41088 1451.4176 1451.4176 0 0 1 290.00704-29.92128 959.65184 959.65184 0 0 1 282.35776 38.84032 48.4352 48.4352 0 0 1 19.74272 10.82368c3.71712 7.48544 6.08256 15.5648 7.00416 23.86944a229.4784 229.4784 0 0 1 2.23232 33.42336c0 11.45856 0 2.23232-1.5872 13.69088a141.76256 141.76256 0 0 1-5.09952 28.65152l0.6144-1.29024z m-270.26432-71.31136c-3.67616-4.7616-7.72096-9.23648-12.10368-13.37344-4.29056-4.25984-8.98048-8.0896-14.00832-11.45856a20.65408 20.65408 0 0 0-10.82368-4.77184 24.60672 24.60672 0 0 0-10.1888 4.4544 125.42976 125.42976 0 0 0-14.32576 11.45856 102.144 102.144 0 0 0-12.41088 13.69088 18.45248 18.45248 0 0 0-5.09952 10.1888c0.18432 6.20544 0.93184 12.3904 2.23232 18.46272 0 7.95648 3.50208 16.87552 5.41696 25.78432 1.91488 8.91904 4.13696 17.82784 6.68672 26.4192s3.50208 13.056 5.41696 19.41504a75.96032 75.96032 0 0 0-12.41088 14.32576 20.67456 20.67456 0 0 0-3.81952 11.776c0.12288 4.27008 1.3312 8.42752 3.50208 12.10368 2.0992 3.70688 4.66944 7.12704 7.63904 10.1888a99.04128 99.04128 0 0 0 11.776 10.82368h34.37568l11.776-10.82368c3.52256-3.03104 6.44096-6.7072 8.6016-10.82368 2.52928-3.52256 3.87072-7.76192 3.81952-12.09344a27.648 27.648 0 0 0-4.78208-14.6432 87.5008 87.5008 0 0 0-13.04576-13.3632c0-5.7344 3.18464-12.42112 4.77184-21.32992l5.7344-26.4192c0-8.6016 3.50208-16.87552 4.78208-24.51456 1.024-5.14048 1.66912-10.35264 1.90464-15.59552a19.1488 19.1488 0 0 0-5.09952-10.50624l-0.31744 0.62464z m0 0"  horiz-adv-x="1024" />

    
    <glyph glyph-name="zhiyepingce" unicode="&#58898;" d="M813.16864 454.99392v4.12672a27.47392 27.47392 0 0 1-11.56096 20.6336l-34.94912 24.2176 21.46304 37.70368c4.00384 7.28064 4.51584 15.9744 1.3824 23.67488a310.25152 310.25152 0 0 1-101.82656 128.79872 27.47392 27.47392 0 0 1-23.94112 3.85024l-40.73472-12.65664-15.68768 40.18176a27.5456 27.5456 0 0 1-17.6128 15.96416 300.7488 300.7488 0 0 1-163.74784 0 27.5456 27.5456 0 0 1-17.6128-15.96416l-15.68768-40.18176-40.73472 12.65664a27.4944 27.4944 0 0 1-23.66464-3.85024 308.736 308.736 0 0 1-102.10304-128.79872 27.52512 27.52512 0 0 1 1.3824-23.67488l21.46304-37.70368-34.94912-24.2176a27.4944 27.4944 0 0 1-11.28448-20.36736v-14.31552a309.59616 309.59616 0 0 1 36.87424-146.95424 27.53536 27.53536 0 0 1 19.53792-13.76256l41.8304-6.32832-3.85024-42.38336a27.52512 27.52512 0 0 1 8.8064-21.73952 302.6944 302.6944 0 0 1 148.33664-72.09984h4.67968a27.57632 27.57632 0 0 1 18.16576 5.77536l30.54592 27.52512 30.8224-27.52512c6.10304-5.57056 14.3872-8.0896 22.56896-6.88128a302.77632 302.77632 0 0 1 148.33664 72.09984 25.31328 25.31328 0 0 1 8.8064 21.73952l-3.03104 42.38336 42.10688 8.25344a27.47392 27.47392 0 0 1 19.26144 13.76256 309.82144 309.82144 0 0 1 37.15072 146.96448c-0.26624 2.48832-0.26624 4.41344-0.54272 9.09312zM507.68896 301.14815999999996A146.41152 146.41152 0 1 0 654.10048 447.2832a146.13504 146.13504 0 0 0-146.41152-146.13504z m0 0M715.74528 182.53823999999997a324.5056 324.5056 0 0 0-148.06016-67.97312 27.61728 27.61728 0 0 0-9.35936 0l23.11168-87.78752a29.72672 29.72672 0 0 1 22.56896-19.53792h5.23264a30.27968 30.27968 0 0 1 22.56896 10.45504l41.55392 47.32928 77.60896-18.9952a27.52512 27.52512 0 0 1 31.09888 10.1888c7.17824 10.24 7.17824 23.87968 0 34.11968l-66.32448 92.20096z m-257.59744-68.52608h-4.95616a326.4 326.4 0 0 0-152.73984 71.55712l-67.69664-96.8704a27.50464 27.50464 0 1 1 31.37536-42.92608l77.33248 19.26144 41.27744-47.616a30.0032 30.0032 0 0 1 22.56896-10.73152h6.05184a29.45024 29.45024 0 0 1 22.016 20.64384l25.6 86.13888-0.82944 0.54272z m0 0"  horiz-adv-x="1024" />

    
    <glyph glyph-name="jiuyerili" unicode="&#58899;" d="M776.66304 658.91328h-50.51392v-52.18304a52.19328 52.19328 0 0 0-52.04992-52.04992 52.19328 52.19328 0 0 0-52.04992 52.04992v52.18304H426.86464v-52.18304c0-28.63104-23.41888-52.04992-52.04992-52.04992s-52.04992 23.41888-52.04992 52.04992v52.18304h-65.32096C200.32512 658.91328 153.6 612.17792 153.6 555.0591999999999v-415.37536C153.6 82.57536000000005 200.32512 35.84000000000003 257.44384 35.84000000000003h519.2192c57.11872 0 103.84384 46.73536 103.84384 103.84384V555.0591999999999c0 57.11872-46.72512 103.85408-103.84384 103.85408zM387.24608 191.61087999999995h-51.9168a25.7024 25.7024 0 0 0-25.9584 25.9584 25.7024 25.7024 0 0 0 25.9584 25.9584h51.9168a25.7024 25.7024 0 0 0 25.9584-25.9584 25.7024 25.7024 0 0 0-25.9584-25.9584z m0 103.84384h-51.9168c-14.5408 0-25.9584 11.42784-25.9584 25.9584s11.4176 25.9584 25.9584 25.9584h51.9168c14.5408 0 25.9584-11.42784 25.9584-25.9584s-11.4176-25.9584-25.9584-25.9584z m155.77088-103.84384h-51.9168a25.7024 25.7024 0 0 0-25.9584 25.9584 25.7024 25.7024 0 0 0 25.9584 25.9584h51.9168a25.7024 25.7024 0 0 0 25.9584-25.9584 25.7024 25.7024 0 0 0-25.9584-25.9584z m0 103.84384h-51.9168c-14.5408 0-25.9584 11.42784-25.9584 25.9584s11.42784 25.9584 25.9584 25.9584h51.9168c14.5408 0 25.9584-11.42784 25.9584-25.9584s-11.4176-25.9584-25.9584-25.9584z m155.77088-103.84384H646.8608a25.7024 25.7024 0 0 0-25.9584 25.9584 25.7024 25.7024 0 0 0 25.9584 25.9584h51.92704a25.7024 25.7024 0 0 0 25.9584-25.9584 25.7024 25.7024 0 0 0-25.9584-25.9584z m0 103.84384H646.8608c-14.5408 0-25.9584 11.42784-25.9584 25.9584s11.4176 25.9584 25.9584 25.9584h51.92704c14.5408 0 25.9584-11.42784 25.9584-25.9584s-11.42784-25.9584-25.9584-25.9584z m103.84384 155.76064H231.48544a25.7024 25.7024 0 0 0-25.9584 25.9584 25.7024 25.7024 0 0 0 25.9584 25.9584h571.14624a25.7024 25.7024 0 0 0 25.96864-25.9584 25.73312 25.73312 0 0 0-25.96864-25.9584zM385.80224 567.6953599999999h-21.98528a28.12928 28.12928 0 0 0-28.04736 28.04736V734.83264A28.12928 28.12928 0 0 0 363.81696 762.88h21.98528a28.12928 28.12928 0 0 0 28.04736-28.04736v-139.10016a28.12928 28.12928 0 0 0-28.04736-28.03712zM685.08672 567.6953599999999h-21.98528a28.12928 28.12928 0 0 0-28.04736 28.04736V734.83264A28.12928 28.12928 0 0 0 663.10144 762.88h21.98528a28.12928 28.12928 0 0 0 28.04736-28.04736v-139.10016a28.11904 28.11904 0 0 0-28.04736-28.03712z"  horiz-adv-x="1024" />

    
    <glyph glyph-name="zhiweijiesuodefuben" unicode="&#58900;" d="M747.30496 469.00224H289.9456c-51.88608 0-94.34112-42.45504-94.34112-94.34112v-295.66976c0-51.88608 42.45504-94.34112 94.34112-94.34112h457.35936c51.88608 0 94.34112 42.45504 94.34112 94.34112V374.66112c0.01024 51.88608-42.4448 94.34112-94.34112 94.34112zM565.93408 173.63968v-62.8736a47.44192 47.44192 0 0 0-47.29856-47.29856 47.44192 47.44192 0 0 0-47.29856 47.29856v62.8736a79.85152 79.85152 0 0 0-32.74752 64.47104 80.04608 80.04608 0 0 0 160.09216 0 79.872 79.872 0 0 0-32.74752-64.47104zM518.05184 787.4457600000001A236.92288 236.92288 0 0 0 745.472 601.344c6.30784-28.73344-16.18944-55.81824-45.60896-55.81824h-1.16736c-21.99552 0-40.2944 15.5648-45.50656 36.93568a142.336 142.336 0 0 1-135.13728 108.61568 142.37696 142.37696 0 0 1-135.14752-108.61568c-5.21216-21.37088-23.51104-36.93568-45.50656-36.93568-29.41952 0-51.92704 27.0848-45.60896 55.81824a236.97408 236.97408 0 0 0 227.42016 186.10176h-1.15712z m0 0"  horiz-adv-x="1024" />

    
    <glyph glyph-name="shixijihui" unicode="&#58901;" d="M901.12 331.20255999999995v-209.52064c0-19.1488-6.94272-35.66592-20.4288-49.2544-13.68064-13.68064-30.09536-20.4288-49.2544-20.4288H189.21472c-19.1488 0-35.66592 6.84032-49.2544 20.4288-13.68064 13.68064-20.52096 30.09536-20.52096 49.2544V331.20255999999995h293.0688v-69.86752c0-7.5264 2.73408-14.06976 8.30464-19.64032s12.02176-8.30464 19.64032-8.30464h139.55072c7.5264 0 14.06976 2.73408 19.64032 8.30464 5.57056 5.57056 8.30464 12.02176 8.30464 19.64032v69.86752H901.12zM880.30208 589.78304c-13.57824 13.48608-30.09536 20.4288-49.2544 20.4288H677.5296v69.86752c0 11.53024-4.00384 21.4016-12.21632 29.61408-8.11008 8.21248-17.98144 12.21632-29.61408 12.21632H384.3584c-11.53024 0-21.4016-4.00384-29.61408-12.21632-8.21248-8.11008-12.21632-17.98144-12.21632-29.61408v-69.86752H189.02016c-19.1488 0-35.57376-6.74816-49.2544-20.4288-13.58848-13.57824-20.4288-30.09536-20.4288-49.2544v-167.59808H901.12V540.52864c0 19.2512-6.84032 35.66592-20.81792 49.2544z m-258.37568 20.61312H398.63296v55.90016h223.29344v-55.90016zM454.32832 331.20255999999995h111.79008v-55.90016H454.32832z"  horiz-adv-x="1024" />

    
    <glyph glyph-name="zhaopinhuodongdefuben" unicode="&#58902;" d="M769.19808 255.63135999999997a152.064 152.064 0 0 1 61.88032 122.368 148.1728 148.1728 0 1 1-296.07936 0 150.95808 150.95808 0 0 1 62.1568-122.368 249.73312 249.73312 0 0 1-136.2432-204.77952c0-14.15168 7.20896-25.25184 20.80768-25.25184h401.79712c13.59872 0 20.80768 11.10016 20.80768 25.25184a251.392 251.392 0 0 1-135.41376 204.77952h0.28672z m0 0M528.05632 268.67711999999995a209.5616 209.5616 0 0 0-44.12416 158.72 198.656 198.656 0 0 0 77.4144 129.86368 200.93952 200.93952 0 0 0 182.86592 24.14592c54.10816-20.5312 55.5008-42.45504 61.88032-42.45504a24.71936 24.71936 0 0 1 24.4224 24.97536V606.1056c2.816 71.1168-52.36736 131.15392-123.48416 134.2976H263.05536c-71.10656-3.15392-126.30016-63.1808-123.48416-134.2976v-436.21376c-2.816-71.1168 52.3776-131.15392 123.48416-134.2976h98.5088a22.20032 22.20032 0 0 1 24.97536 21.63712 147.13856 147.13856 0 0 0 14.70464 55.5008 343.07072 343.07072 0 0 0 53.00224 86.30272 349.76768 349.76768 0 0 0 73.80992 69.64224zM312.45312 632.46336h179.53792c8.73472-0.22528 15.96416-6.8608 16.92672-15.54432a19.73248 19.73248 0 0 0-16.65024-23.02976H313.83552a17.2032 17.2032 0 0 0-19.1488 18.03264 18.3296 18.3296 0 0 0 17.75616 19.42528v1.11616z m-67.70688 4.7104a24.43264 24.43264 0 0 0 21.37088-11.9296 24.17664 24.17664 0 0 0 0-24.4224 24.41216 24.41216 0 0 0-21.37088-11.9296 24.14592 24.14592 0 0 0 0 48.2816zM385.4336 285.60384H237.52704a21.62688 21.62688 0 1 0 0 43.008H385.4336a21.62688 21.62688 0 1 0 0-43.008z m49.664 121.81504H237.52704c-13.8752 0-24.97536 7.49568-24.4224 21.64736a21.93408 21.93408 0 0 0 24.4224 21.64736H435.0976a22.15936 22.15936 0 0 0 24.41216-21.64736 21.63712 21.63712 0 0 0-24.41216-21.64736z m0 0"  horiz-adv-x="1024" />

    
    <glyph glyph-name="biyeshenqing" unicode="&#58903;" d="M156.88706124 245.69840223000006a361.23210183 361.23210183 0 0 0 72.65155906 128.65017781v-139.81013334c-19.94624569 0-39.34567841-1.65286646-58.01188465-4.75975832-9.51951664-1.6404389-17.57258032 6.77302423-14.63967441 15.91971385zM979.8281474 507.21170318L496.53247849 313.41621704a14.76395008 14.76395008 0 0 0-9.70593015 0l-226.72853978 93.15704528 219.59511608 87.65163293a65.82882455 65.82882455 0 0 1 23.23955106-4.02653184c24.706004 0 45.19906267 12.25358146 45.19906266 27.26608289 0 15.37290089-20.49305866 27.62648235-45.19906266 27.62648234-25.06640347 0-45.19906267-12.25358146-45.19906266-27.62648234 0-1.46645296 0-2.56007888 0.73322648-3.66613239l-228.92821922-91.31776531v-4.02653184l-205.51468222 84.54474108c-10.42672906 4.20051778-10.42672906 19.38700515 0.37282703 23.5999505l465.54910265 189.40855486c3.29330537 1.09362593 6.77302423 1.09362593 9.69350258 0.37282702L979.65416144 531.18448072c10.600715-4.20051778 10.97354203-19.39943273 0.17398596-23.97277754zM836.7247087 217.89793394000003a386.3730707 386.3730707 0 0 1-70.09148018 6.58661072 362.22630722 362.22630722 0 0 1-254.72784916-104.1305873c-5.30657129-4.94617183-13.18564901-4.94617183-18.11939328 0.18641351a360.31246185 360.31246185 0 0 1-238.07490882 112.91687746V377.28148594000004l231.31431216-94.97147013c2.92047835-1.09362593 6.58661072-1.09362593 9.51951663 0l257.28792803 103.21094732a12.9619528 12.9619528 0 0 0 14.09286144-2.9329059 364.18986288 364.18986288 0 0 0 83.62510109-149.3172224c2.92047835-9.15911717-5.4929848-17.21218085-14.82608791-15.37290089zM245.27192064 182.75277331999996h-4.02653184a26.3464429 26.3464429 0 0 1-26.3464429-26.34644292v-124.25081893c0-2.01326592 1.65286646-3.65370482 3.65370482-3.65370482h47.5851556a5.30657129 5.30657129 0 0 1 5.30657128 5.30657128v122.61038005a26.20973966 26.20973966 0 0 1-26.17245696 26.33401534z"  horiz-adv-x="1024" />

    
    <glyph glyph-name="shouxubanli" unicode="&#58904;" d="M647.52262258 566.4865393800001h147.72105671c-1.8874368 3.78652445-3.78652445 7.57304889-7.57304889 11.35957334L583.12840533 782.38833778c-3.78652445 3.78652445-7.57304889 5.68561209-11.35957333 7.57304889v-147.72105671c0-41.66341973 34.09037085-75.75379058 75.75379058-75.75379058z m0 0M795.24367929 566.4865393800001H647.52262258c-41.66341973 0-75.75379058 34.09037085-75.75379058 75.75379058V789.96138667c-5.68561209 1.89908765-9.47213653 3.78652445-15.15774862 3.78652445H268.75366969c-41.66341973 0-75.75379058-34.09037085-75.75379058-75.75379058V74.07524978000004c0-41.66341973 34.09037085-75.75379058 75.75379058-75.75379058h101.01282133l429.26371271 429.26371272V551.32879076c0 5.68561209-1.8874368 11.37122418-3.78652444 15.15774862zM522.85858702 304.86682738H261.02915982c-9.97312285 0-18.69960533 13.25866098-18.69960533 28.40475876 0 15.15774862 8.72648249 28.40475875 18.69960533 28.40475875h261.84107805c9.97312285 0 18.69960533-13.25866098 18.69960533-28.40475875 0-15.14609778-8.72648249-28.40475875-18.71125618-28.40475876z m145.57730133 151.50758116H270.73431325c-15.15774862 0-28.40475875 13.25866098-28.40475876 28.40475875 0 15.15774862 13.25866098 28.40475875 28.40475876 28.40475876h397.71322595c15.15774862 0 28.40475875-13.25866098 28.40475875-28.40475876 0-15.14609778-13.25866098-28.40475875-28.4164096-28.40475875zM870.55473778 350.98086968999996a30.932992 30.932992 0 0 0 0-43.74892089l-36.45549227-36.43219058-72.91098453 72.91098454 36.45549227 36.43219058a30.95629369 30.95629369 0 0 0 43.74892088 0l29.16206365-29.16206365zM547.70983822 131.9100416l199.36925013 196.54974578 73.3187641-72.88768284-199.3342976-196.53809494zM488.50024675-1.6785407999999507l44.43632072 118.34927787 72.44495075-72.28183893z"  horiz-adv-x="1024" />

    
    <glyph glyph-name="jinchengzhushou" unicode="&#58905;" d="M677.27951644 579.78079005L552.58052835 455.0934528l-77.39655964 77.39655965c-8.5983232 8.5983232-21.495808 8.5983232-30.10578205 0l-108.92374471-108.92374472c-8.5983232-8.5983232-8.5983232-21.495808 0-30.10578204 8.5983232-8.5983232 21.495808-8.5983232 31.52718507 0l93.16015218 93.16015218 75.96350578-77.39655965c8.5983232-8.5983232 21.495808-8.5983232 30.10578204 0l140.46258062 140.46258063c8.5983232 8.5983232 8.5983232 21.495808 0 30.10578204-8.5983232 8.5983232-21.495808 8.5983232-30.0941312-0.01165084zM423.05809066 206.51103573h185.52804694v-111.32381866H423.05809066zM682.80201671 39.53113314999996H348.84221155a37.21279715 37.21279715 0 0 0-37.10793955 37.10793956 37.21279715 37.21279715 0 0 0 37.10793955 37.10793956h333.95980516a37.21279715 37.21279715 0 0 0 37.10793955-37.10793956 37.224448 37.224448 0 0 0-37.10793955-37.10793956z m148.42010737 148.42010738H200.41045333c-40.81290809 0-74.21587911 33.40297102-74.21587911 74.21587912V670.33115307c0 40.81290809 33.39132018 74.21587911 74.21587911 74.21587911h630.81167075c40.81290809 0 74.21587911-33.39132018 74.21587912-74.21587911v-408.17568427c0-40.81290809-33.40297102-74.20422827-74.21587912-74.20422827z m0 0M274.62633244 345.65707093000003c-11.12655645 11.13820729-11.12655645 27.83386738 0 38.96042382l140.99851947 140.99851947c11.13820729 11.12655645 27.83386738 11.12655645 38.96042382 0l100.18561138-100.18561137L716.18168604 586.84120178c11.12655645 11.12655645 27.83386738 11.12655645 38.96042382 0 11.12655645-11.12655645 11.12655645-27.83386738 0-38.96042383L573.33068231 366.05769955000005c-11.12655645-11.13820729-27.83386738-11.13820729-38.96042383 0l-98.3331271 100.18561138-120.58624-120.58624c-12.99069155-11.13820729-29.68635165-11.13820729-40.82455894 0z m0 0"  horiz-adv-x="1024" />

    
    <glyph glyph-name="xiangguanxiazai" unicode="&#58906;" d="M781.136 48.27840000000003H251.5424c-41.616 0-75.6576 34.0416-75.6576 75.6576V653.5296c0 41.6064 34.0416 75.6576 75.6576 75.6576h529.5936c41.6064 0 75.6576-34.0416 75.6576-75.6576V123.93600000000004c0-41.616-34.0416-75.6576-75.6576-75.6576z m0 0M175.8848 596.784h680.9088v-56.736H175.8848zM762.224 426.5568l-94.5696 75.6576-94.5696-75.6576V729.1872h189.1392v-302.6304z m0 0"  horiz-adv-x="1024" />

    
    <glyph glyph-name="wodejianli" unicode="&#58907;" d="M847.54432 677.65099027c0 50.77904043-41.54535785 96.93502578-92.32439827 96.93502578H293.63521309c-50.77904043 0-92.32439827-46.15598535-92.32439827-96.93502578v-540.06479683C201.31081482 82.18409794000002 242.85617266 36.02811258999998 293.63521309 36.02811258999998h461.59713621C805.99896215 36.02811258999998 847.54432 82.18409794000002 847.54432 132.96313837000002V677.65099027zM801.38833465 132.96313837000002c0-27.70104775-18.46736517-50.77904043-46.15598535-50.77904043H293.63521309c-27.70104775 0-46.15598535 23.07799267-46.15598536 50.77904043V677.65099027c0 27.70104775 18.46736517 50.77904043 46.15598536 50.77904043h461.59713621c27.70104775 0 46.15598535-23.07799267 46.15598535-50.77904043V132.96313837000002zM293.63521309 677.65099027h461.59713621v-50.77904042H293.63521309v50.77904042zM293.63521309 405.30085054h461.59713621v-50.77904043H293.63521309v50.77904043zM293.63521309 331.44381744h461.59713621v-50.77904043H293.63521309v50.77904043zM293.63521309 257.59921189h461.59713621v-50.77904042H293.63521309v50.77904042zM293.63521309 183.74217879000003h461.59713621V132.96313837000002H293.63521309v50.77904042zM478.27158206 576.0929094200001h276.96076724v-50.77904043H478.27158206v50.77904043zM478.27158206 502.23587632h276.96076724v-50.77904043H478.27158206v50.77904043zM293.63521309 576.0929094200001h138.48038361v-147.71406621H293.63521309V576.0929094200001z"  horiz-adv-x="1024" />

    
    <glyph glyph-name="wodeyuyue" unicode="&#58908;" d="M256.12881465 695.03281759a90.92008315 90.92008315 0 1 0 181.84016631 0 90.92008315 90.92008315 0 0 0-181.84016631 0zM530.82776462 492.22734506a79.80983789 79.80983789 0 0 1-67.91665587 72.1047461l-48.95218802 7.19556153a9.87991609 9.87991609 0 0 1-10.4888669-5.82852912l-22.31991106-51.20157771c-4.03895941-9.25853772-17.73413869-7.2079891-18.8774749 2.83348536a12.68854633 12.68854633 0 0 1-12.60155334 11.24694851h-14.05557874a2.79620267 2.79620267 0 0 1-2.7837751-2.56007889l-0.89478485-8.82357286c-1.01906053-10.11603987-14.82608791-12.2784366-18.88990246-2.95776105l-22.43175917 51.46255664a9.87991609 9.87991609 0 0 1-10.4888669 5.82852912l-48.95218801-7.19556153a79.83469302 79.83469302 0 0 1-67.91665589-72.09231852L145.13821013 282.62399316999995a9.89234366 9.89234366 0 0 1 9.84263339-10.73741824h42.94967296a9.87991609 9.87991609 0 0 1 9.85506096 9.20882745l9.86748851 144.65688462 13.85673767-103.93174623a9.4200961 9.4200961 0 0 0 0.06213783-1.96355566l-6.93458261-103.93174622h13.98101333v-227.90915868c0-5.45570209 4.42421399-9.87991609 9.8799161-9.87991608h64.72277105c5.23200588 0 9.5692269 4.08866967 9.86748852 9.32067555l13.04894578 228.48082677h14.78880521l13.04894578-228.48082677c0.29826162-5.23200588 4.62305507-9.32067555 9.86748852-9.32067555h64.72277106a9.87991609 9.87991609 0 0 1 9.87991609 9.87991608V206.05775037c0 5.45570209 4.42421399 9.87991609 9.87991609 9.87991608h0.53438539c5.71668101 0 10.24031554 4.83432372 9.85506096 10.53857718l-6.22621127 93.39316906a9.4200961 9.4200961 0 0 0 0.06213783 1.96355565l13.85673766 103.94417378 9.86748853-144.65688462a9.87991609 9.87991609 0 0 1 9.85506096-9.20882744h42.94967296a9.87991609 9.87991609 0 0 1 9.84263338 10.72499068L530.82776462 492.22734506z m-211.76574862 76.91421468c0.0372827-8.388608 6.95943775-19.58584624 11.14752797-23.77393643 4.20051778-4.18809022 11.22209337-4.18809022 16.8144987-4.18809023 5.60483291 0 12.62640848 0 16.82692627 4.18809023 4.18809022 4.18809022 11.11024526 15.38532845 11.14752797 23.77393643 0.0372827 9.79292311-17.07547762 11.19723824-27.98688182 11.19723823-10.86169392-0.01242757-27.97445424-1.40431511-27.94959909-11.19723823z m342.7150264 20.97773379c-44.34156051 0-86.04847673-11.17238309-122.52338707-30.80793961a101.70721166 101.70721166 0 0 0 19.68526677-37.68038438 215.49401885 215.49401885 0 0 0 109.92183372 25.87419535c115.83735581-3.71584266 209.92646864-101.70721166 209.16838703-217.59427773-0.77050917-118.77026171-97.3078528-214.82293021-216.26452802-214.8229302-62.31182299 0-118.31044172 26.49557371-157.76796824 68.67473748l0.01242756-0.16155838-23.21469591-37.14599898c52.84201662-51.73596311 127.69325511-81.04016706 209.26780757-72.37815257 119.32950224 12.66369119 215.66800479 108.5175186 228.85365382 227.784883 17.26189113 156.12752933-104.50341433 288.25742602-257.13879723 288.25742602z m137.1506339-279.47113587c0 11.90560958-9.66864745 21.56182945-21.56182945 21.56182946h-97.03444632V472.3805199a21.56182945 21.56182945 0 0 1-43.1236589 0v-140.17053277a43.17336917 43.17336917 0 0 1 43.13608648-43.13608648h97.03444631a21.58668459 21.58668459 0 0 1 21.54940188 21.57425701z m0 0"  horiz-adv-x="1024" />

    
    <glyph glyph-name="wodexinxiweihu" unicode="&#58909;" d="M780.86144 364.15488000000005l53.504-53.504a30.89408 30.89408 0 0 0 0-43.68384L696.10496 128.71680000000003a30.84288 30.84288 0 0 0-17.46944-8.73472l-62.98624-9.00096a30.89408 30.89408 0 0 0-35.01056 34.53952l7.85408 60.86656a30.83264 30.83264 0 0 0 8.79616 17.88928l139.88864 139.8784a30.89408 30.89408 0 0 0 43.68384 0z m75.35616-42.9568l-64.78848 64.79872a22.90688 22.90688 0 1 0 32.39936 32.39936l64.78848-64.78848c8.94976-8.94976 8.94976-23.4496 0-32.38912a22.8864 22.8864 0 0 0-32.39936-0.02048z m16.19968-16.19968M443.48416 783.2576c13.75232 0 27.45344-1.65888 40.81664-4.92544 13.14816-3.1232 25.93792-7.55712 38.1952-13.24032a172.9536 172.9536 0 0 0 31.78496-18.92352c8.0896-6.08256 15.34976-13.2096 21.57568-21.1968a166.97344 166.97344 0 0 0 27.11552-53.32992 390.38976 390.38976 0 0 0 11.96032-55.6032c2.22208-17.47968 3.47136-35.072 3.7376-52.6848 0.07168-4.88448 1.81248-9.5232 4.8128-13.38368 1.19808-1.54624 2.24256-3.21536 3.11296-4.98688 2.01728-4.34176 3.4816-8.91904 4.37248-13.6192 1.25952-6.73792 1.45408-13.6192 0.58368-20.41856a83.7632 83.7632 0 0 0-6.12352-25.33376 52.65408 52.65408 0 0 0-10.496-14.75584 34.37568 34.37568 0 0 0-6.22592-4.93568c-4.54656-2.816-8.1408-6.912-9.60512-12.06272a710.5536 710.5536 0 0 0-4.27008-14.47936c-0.2048-0.68608-0.45056-1.37216-0.7168-2.03776a404.7872 404.7872 0 0 0-7.76192-18.28864 52.65408 52.65408 0 0 0-10.496-14.75584 734.3104 734.3104 0 0 1-22.15936-19.3024 47.01184 47.01184 0 0 1-11.37664-26.84928 101.1712 101.1712 0 0 1-1.45408-23.06048c0.68608-8.07936 2.74432-15.96416 6.12352-23.32672 3.97312-8.40704 9.5232-15.9744 16.3328-22.30272 0.91136-0.80896 1.83296-1.59744 2.77504-2.36544a21.8624 21.8624 0 0 0 1.59744-32.37888l-10.45504-10.45504a21.88288 21.88288 0 0 1-6.23616-12.6976l-18.88256-146.28864a21.88288 21.88288 0 0 1 24.80128-24.51456A41032.3968 41032.3968 0 0 0 706.4576 82.12480000000005a21.8624 21.8624 0 0 1 12.47232 6.21568l18.61632 18.61632a205.9264 205.9264 0 0 0-1.90464-15.67744 67.47136 67.47136 0 0 0-4.29056-17.60256c-1.73056-4.4032-4.54656-8.33536-8.47872-10.96704-4.5056-3.01056-9.5744-5.13024-14.92992-6.21568a394.4448 394.4448 0 0 0-41.1136-10.19904 800.9216 800.9216 0 0 0-55.11168-8.74496c-20.1728-2.53952-40.38656-4.68992-60.64128-6.44096-19.6096-1.69984-39.24992-3.09248-58.90048-4.17792a915.53792 915.53792 0 0 0-48.6912-1.51552c-13.71136 0-29.7472 0.49152-48.10752 1.51552-18.37056 1.024-37.03808 2.39616-56.56576 4.17792a2161.8688 2161.8688 0 0 0-58.01984 6.06208c-19.2512 2.27328-36.74112 4.66944-52.48 7.168a609.0752 609.0752 0 0 0-39.94624 7.5776 52.3264 52.3264 0 0 0-13.33248 3.81952A22.81472 22.81472 0 0 0 163.84 66.62144a66.6624 66.6624 0 0 0-6.97344 29.94176 300.01152 300.01152 0 0 0 3.20512 80.22016 63.71328 63.71328 0 0 0 20.992 42.74176 136.68352 136.68352 0 0 0 40.52992 23.31648 525.23008 525.23008 0 0 0 48.10752 15.5136 149.0944 149.0944 0 0 1 44.032 19.68128 103.936 103.936 0 0 1 22.74304 18.92352c2.6112 2.89792 4.93568 6.02112 6.94272 9.34912 5.9904 9.8816 8.41728 21.504 8.16128 33.05472a335.43168 335.43168 0 0 1-0.8192 16.65024 42.42432 42.42432 0 0 1-11.37664 27.61728 386.99008 386.99008 0 0 1-22.15936 20.81792 46.61248 46.61248 0 0 0-9.91232 14.75584c-2.53952 6.08256-5.02784 12.1856-7.4752 18.30912a23.53152 23.53152 0 0 0-0.70656 2.01728 786.28864 786.28864 0 0 0-3.69664 12.46208c-1.60768 5.60128-4.84352 10.8032-9.80992 13.85472a32.02048 32.02048 0 0 0-3.08224 2.16064 58.85952 58.85952 0 0 0-9.32864 10.58816 63.3856 63.3856 0 0 0-8.45824 19.68128 52.9408 52.9408 0 0 0-3.20512 23.32672 73.37984 73.37984 0 0 0 3.7888 18.16576c1.4336 3.95264 3.34848 7.71072 5.70368 11.17184 2.41664 3.55328 3.54304 7.7824 3.52256 12.07296-0.1024 16.76288 0.91136 33.50528 3.03104 50.14528 2.08896 17.63328 5.49888 35.08224 10.20928 52.19328a162.90816 162.90816 0 0 0 22.44608 49.94048 139.776 139.776 0 0 0 30.33088 34.43712 151.67488 151.67488 0 0 0 34.10944 20.81792 141.7728 141.7728 0 0 0 34.99008 10.20928 224.03072 224.03072 0 0 0 33.83296 2.65216v-0.1536z m0 0"  horiz-adv-x="1024" />

    
    <glyph glyph-name="wodedingyue" unicode="&#58910;" d="M697.009196 794.10972445H272.53320363c-40.01676705 0-72.76340717-32.74664012-72.76340717-72.76340717v-670.57910974l3.62884967-2.31152754 273.97815108 127.58140701a17.48558734 17.48558734 0 0 0 14.78880521 0L766.14375348 48.45568000000003l3.62884969 2.31152754V179.60379884999998c-0.86992972-0.0372827-1.7150043-0.13670324-2.58493403-0.13670324-38.89828598 0-70.73771369 31.82700013-70.73771367 70.73771368v44.04329889h-40.79970381c-40.32745623 0-73.3226477 32.99519147-73.3226477 73.32264771 0 40.32745623 32.99519147 73.3226477 73.3226477 73.3226477h40.79970381v41.48322c0 38.89828598 31.82700013 70.73771369 70.73771367 70.73771369 0.86992972 0 1.72743187-0.09942053 2.58493403-0.13670324V721.34631728c0 40.01676705-32.74664012 72.76340717-72.76340717 72.76340717z m-46.46667454-188.72503866H318.99987817c-25.25281697 0-45.90743401 20.65461703-45.90743401 45.90743401s20.65461703 45.90743401 45.90743401 45.907434h331.54264329c25.25281697 0 45.90743401-20.65461703 45.90743401-45.907434s-20.65461703-45.90743401-45.90743401-45.90743401zM874.33815533 409.40194779h-65.66726618v65.66726617a42.83782485 42.83782485 0 0 1-42.71354918 42.71354919 42.83782485 42.83782485 0 0 1-42.71354918-42.71354919v-65.66726617h-65.66726618c-23.50052997 0-42.71354917-19.22544677-42.71354918-42.71354919s19.22544677-42.71354917 42.71354918-42.71354918h65.66726618v-65.66726618a42.83782485 42.83782485 0 0 1 42.71354918-42.71354918 42.83782485 42.83782485 0 0 1 42.71354918 42.71354918V323.97484942000006h65.66726618c23.50052997 0 42.71354917 19.22544677 42.71354918 42.71354918s-19.22544677 42.71354917-42.71354918 42.71354919z"  horiz-adv-x="1024" />

    
    <glyph glyph-name="wodeshoucang" unicode="&#58911;" d="M514.6112 83.73248000000001l201.4208-71.65952c25.18016-9.6768 52.28544 9.68704 52.28544 36.79232l-5.80608 213.0432c0 9.6768 1.93536 17.42848 7.75168 25.18016-174.30528-174.29504-280.832-203.35616-280.832-203.35616 7.75168 3.88096 15.49312 3.88096 25.18016 0z m0 0M880.65024 517.56032l-205.29152 60.03712c-7.74144 1.93536-15.49312 7.75168-21.30944 15.49312L532.03968 769.34144c-15.49312 23.2448-48.41472 23.2448-63.91808 0L348.04736 591.1551999999999c-5.80608-7.74144-11.61216-13.55776-21.2992-15.49312l-205.29152-58.10176c-25.18016-7.74144-36.80256-38.73792-19.36384-60.03712l129.76128-168.4992c5.80608-7.74144 7.74144-15.49312 7.74144-25.18016l-3.87072-214.96832c0-27.11552 25.18016-46.47936 52.29568-36.79232l201.4208 71.65952s106.51648 29.05088 280.832 203.35616l129.76128 168.4992c15.48288 21.2992 5.79584 54.2208-19.38432 61.96224z m0 0M504.92416 308.39808000000005l58.10176-21.2992c7.75168-1.93536 13.55776 1.93536 13.55776 9.68704l-1.93536 61.97248c0 1.93536 0 3.87072 1.93536 5.80608l38.73792 50.35008c3.87072 5.80608 1.93536 13.55776-5.80608 15.49312l-60.03712 17.42848c-1.93536 0-3.87072 1.93536-5.80608 3.87072l-34.8672 52.29568c-3.87072 5.80608-13.55776 5.80608-17.42848 0l-34.85696-52.29568c-1.93536-1.93536-3.87072-3.87072-5.80608-3.87072l-60.03712-17.42848c-7.75168-1.93536-9.68704-9.68704-5.80608-15.49312l38.73792-50.35008c1.93536-1.93536 1.93536-3.87072 1.93536-5.80608l-1.93536-61.97248c0-7.75168 7.74144-11.6224 13.55776-9.68704l58.10176 21.2992h9.65632z m0 0"  horiz-adv-x="1024" />

    
    <glyph glyph-name="wodejiuyejincheng" unicode="&#58912;" d="M507.10664533 202.94587733000003L350.519296 90.39872000000003c-9.78670933-4.89335467 9.78670933-4.89335467 9.78670933-4.89335467h288.69700267c14.680064 0 0 19.57341867 0 19.57341867-44.040192 63.61361067-83.18702933 88.080384-107.65380267 102.760448-24.45585067 14.680064-34.24256-4.89335467-34.24256-4.89335467z m0 0M629.440512 638.4544426699999h-244.66773333s-19.57341867-63.61361067 73.40032-127.22722134c0 0 39.14683733-24.46677333 48.93354666-88.080384v-4.89335466 4.89335466c4.89335467 63.61361067 48.93354667 88.080384 48.93354667 88.080384 92.97373867 63.61361067 73.40032 127.22722133 73.40032 127.22722134z m0 0M609.86709333 472.080384c102.760448 78.29367467 117.440512 185.94747733 117.440512 234.881024h24.46677334c19.57341867 0 34.25348267 14.680064 34.25348266 34.25348267s-14.680064 34.25348267-34.25348266 34.25348266H272.22562133c-19.57341867 0-34.25348267-14.680064-34.25348266-34.25348266s14.680064-34.25348267 34.25348266-34.25348267h24.46677334c0-48.93354667 14.680064-156.58734933 117.440512-234.881024 34.25348267-24.46677333 53.82690133-53.82690133 53.82690133-88.080384 0-53.82690133-48.93354667-92.97373867-53.82690133-92.97373867-9.78670933-4.89335467-117.440512-83.18702933-117.440512-229.98766933h-24.46677334c-19.57341867 0-34.25348267-14.680064-34.25348266-34.25348267s14.680064-34.25348267 34.25348266-34.25348266h479.54875734c19.57341867 0 34.25348267 14.680064 34.25348266 34.25348266s-14.680064 34.25348267-34.25348266 34.25348267h-24.46677334c0 146.80064-112.54715733 225.09431467-117.440512 229.98766933-4.89335467 4.89335467-53.82690133 44.040192-53.82690133 92.97373867 0 34.25348267 14.680064 63.61361067 53.82690133 88.080384zM531.57341867 384c0-63.61361067 58.720256-107.65380267 63.61361066-112.54715733 0 0 107.65380267-73.40032 107.65380267-210.41425067h-391.46837333c0 137.01393067 107.65380267 210.41425067 107.65380266 210.41425067 4.89335467 0 63.61361067 48.93354667 63.61361067 112.54715733 0 39.14683733-19.57341867 73.40032-63.61361067 102.760448-88.080384 73.40032-102.760448 176.14984533-102.760448 220.20096h386.564096c0-44.040192-14.680064-141.90728533-107.65380266-215.30760533-39.13591467-34.25348267-63.602688-68.50696533-63.602688-107.65380267z m0 0"  horiz-adv-x="1024" />

    
    <glyph glyph-name="dianhua" unicode="&#58913;" d="M838.95363999 191.84886359999996c0-122.60742188-56.19455337-122.60742188-326.95363999-122.60742188-270.75754165 0-326.95363999 0-326.95363999 122.60742188 0 132.82419204 148.15011978 398.47412109 326.95363999 398.47412109 178.80197525 0 326.95363999-265.64992905 326.95363999-398.47412109zM512 534.12843132c-76.62963867 0-137.93334961-61.30371094-137.93334961-137.93334961S435.37036133 258.2617321 512 258.2617321s137.93334961 61.30371094 137.93334961 137.93334961S588.62963867 534.12843132 512 534.12843132zM225.91653061 431.95454978C282.11108398 523.91011619 379.17580796 620.97484016 512 620.97484016s240.10568618-107.28149414 286.08346939-189.02029038c25.5426979-40.86862564 71.52048111-35.76101303 91.9555664 0 15.32592773 25.5426979 56.19455337 255.43161392-378.03903579 255.43161393-434.23513413 0-393.36496353-234.99807358-378.03903579-255.43161393 30.65185547-40.86862564 81.73879624-20.4350853 91.9555664 0z"  horiz-adv-x="1024" />

    
    <glyph glyph-name="chuanzhen" unicode="&#58914;" d="M257.5625 598.40625001c18.375 0 34.125-6.5625 47.25-19.59375001 13.125-13.125 19.59375001-28.875 19.59375001-47.25v-455.4375c0-18.375-6.5625-34.125-19.59375001-47.25-13.125-13.125-28.875-19.59375001-47.25-19.59375001h-53.625c-18.375 0-34.125 6.5625-47.25 19.59375001-13.125 13.03125002-19.59375001 28.78125001-19.59375001 47.15624999V531.375c0 18.375 6.46875001 34.125 19.59375001 47.25s28.875 19.59375001 47.25 19.59375001l53.625 0.18749998z m575.90625001-68.25000002c16.21875001-9.46875001 29.0625-22.40625001 38.90624999-38.90624999 9.75-16.40625001 14.625-34.3125 14.625-53.625v-321.375c0-29.53125001-10.40625001-54.84375001-31.40624999-75.74999999S809.375 9 779.84375001 9H418.25c-18.375 0-34.125 6.5625-47.25 19.59375001-13.125 13.125-19.59375001 28.875-19.59375001 47.24999998V718.875c0 11.25 3.84375001 20.71875001 11.71875001 28.40625001 7.875 7.875 17.34375001 11.71875001 28.40625001 11.71874999h281.24999998c11.25 0 23.34375001-2.8125 36.84375001-8.4375 13.3125-5.53125001 24.09375001-12.375 31.78125001-20.06249999l63.65624999-63.65625002c7.875-7.875 14.53125001-18.375 20.0625-31.78124999 5.53125001-13.3125 8.4375-25.6875 8.4375-36.84375001l-0.09374999-68.0625z m-53.53125001-39V598.40625001h-66.9375c-11.25 0-20.71875001 3.84375001-28.40624999 11.71874999-7.875 7.875-11.71875001 17.34375001-11.71875001 28.40624999v66.9375H404.9375v-214.31249998h375zM525.3125 330.46874999v53.625c0 3.84375001-1.21875001 7.125-3.75 9.5625-2.53125001 2.53125001-5.71875001 3.75-9.5625 3.75h-53.625c-3.84375001 0-7.125-1.21875001-9.5625-3.75-2.53125001-2.53125001-3.75-5.71875001-3.75-9.5625v-53.625c0-3.84375001 1.21875001-7.125 3.75-9.5625 2.53125001-2.53125001 5.71875001-3.75 9.5625-3.75H512c3.84375001 0 7.125 1.21875001 9.5625 3.75 2.625 2.4375 3.75 5.71875001 3.75 9.5625z m0-107.06249998v53.62499998c0 3.84375001-1.21875001 7.125-3.75 9.56250002-2.53125001 2.53125001-5.71875001 3.75-9.5625 3.75h-53.625c-3.84375001 0-7.125-1.21875001-9.5625-3.75-2.53125001-2.53125001-3.75-5.71875001-3.75-9.56250002v-53.62499998c0-3.84375001 1.21875001-7.125 3.75-9.5625 2.53125001-2.53125001 5.71875001-3.75 9.5625-3.75H512c3.84375001 0 7.125 1.21875001 9.5625 3.75 2.625 2.34375001 3.75 5.53125001 3.75 9.5625z m0-107.25v53.625c0 3.84375001-1.21875001 7.125-3.75 9.5625-2.53125001 2.4375-5.71875001 3.75-9.5625 3.75h-53.625c-3.84375001 0-7.125-1.21875001-9.5625-3.75-2.53125001-2.53125001-3.75-5.71875001-3.75-9.5625v-53.625c0-3.84375001 1.21875001-7.125 3.75-9.5625 2.53125001-2.53125001 5.71875001-3.75 9.5625-3.75H512c3.84375001 0 7.125 1.21875001 9.5625 3.75 2.625 2.53125001 3.75 5.625 3.75 9.5625z m107.25 214.31249998v53.62500002c0 3.84375001-1.21875001 7.125-3.75 9.5625-2.53125001 2.53125001-5.71875001 3.75-9.5625 3.75h-53.625c-3.84375001 0-7.125-1.21875001-9.5625-3.75-2.53125001-2.53125001-3.75-5.71875001-3.75-9.5625v-53.625c0-3.84375001 1.21875001-7.125 3.75-9.5625 2.53125001-2.53125001 5.71875001-3.75 9.5625-3.75h53.625c3.84375001 0 7.125 1.21875001 9.5625 3.75 2.4375 2.4375 3.75 5.71875001 3.75 9.5625z m0-107.06249998v53.62499998c0 3.84375001-1.21875001 7.125-3.75 9.56250002-2.53125001 2.53125001-5.71875001 3.75-9.5625 3.75h-53.625c-3.84375001 0-7.125-1.21875001-9.5625-3.75-2.53125001-2.53125001-3.75-5.71875001-3.75-9.56250002v-53.62499998c0-3.84375001 1.21875001-7.125 3.75-9.5625 2.53125001-2.53125001 5.71875001-3.75 9.5625-3.75h53.625c3.84375001 0 7.125 1.21875001 9.5625 3.75 2.4375 2.34375001 3.75 5.53125001 3.75 9.5625z m0-107.25v53.625c0 3.84375001-1.21875001 7.125-3.75 9.5625-2.53125001 2.53125001-5.71875001 3.75-9.5625 3.75h-53.625c-3.84375001 0-7.125-1.21875001-9.5625-3.75-2.53125001-2.53125001-3.75-5.71875001-3.75-9.5625v-53.625c0-3.84375001 1.21875001-7.125 3.75-9.5625 2.53125001-2.53125001 5.71875001-3.75 9.5625-3.75h53.625c3.84375001 0 7.125 1.21875001 9.5625 3.75 2.4375 2.53125001 3.75 5.625 3.75 9.5625z m107.15625001 214.31249998v53.62500002c0 3.84375001-1.21875001 7.125-3.75000003 9.5625-2.53125001 2.53125001-5.71875001 3.75-9.56249999 3.75h-53.625c-3.84375001 0-7.125-1.21875001-9.5625-3.75-2.53125001-2.53125001-3.75-5.71875001-3.75-9.5625v-53.625c0-3.84375001 1.21875001-7.125 3.75-9.5625 2.53125001-2.53125001 5.71875001-3.75 9.5625-3.75h53.625c3.84375001 0 7.125 1.21875001 9.56249999 3.75 2.4375 2.4375 3.75 5.71875001 3.75000001 9.5625z m-2e-8-107.06249998v53.62499998c0 3.84375001-1.21875001 7.125-3.75000001 9.56250002-2.53125001 2.53125001-5.71875001 3.75-9.56249999 3.75h-53.625c-3.84375001 0-7.125-1.21875001-9.5625-3.75-2.53125001-2.53125001-3.75-5.71875001-3.75-9.56250002v-53.62499998c0-3.84375001 1.21875001-7.125 3.75-9.5625 2.53125001-2.53125001 5.71875001-3.75 9.5625-3.75h53.625c3.84375001 0 7.125 1.21875001 9.56249999 3.75 2.4375 2.34375001 3.75 5.53125001 3.75000001 9.5625z m0-107.25v53.625c0 3.84375001-1.21875001 7.125-3.75000001 9.5625-2.53125001 2.53125001-5.71875001 3.75-9.56249999 3.75h-53.625c-3.84375001 0-7.125-1.21875001-9.5625-3.75-2.53125001-2.53125001-3.75-5.71875001-3.75-9.5625v-53.625c0-3.84375001 1.21875001-7.125 3.75-9.5625 2.53125001-2.53125001 5.71875001-3.75 9.5625-3.75h53.625c3.84375001 0 7.125 1.21875001 9.56249999 3.75 2.4375 2.53125001 3.75 5.625 3.75000001 9.5625z"  horiz-adv-x="1024" />

    
    <glyph glyph-name="didian" unicode="&#58915;" d="M808.442 145.52700000000004c-19.129 12.815-45.006 23.897-76.914 32.938-29.814 8.447-64.333 14.988-101.734 19.411a1474.629 1474.629 0 0 1 27.112 41.87c35.54 57.014 63.92 111.757 84.355 162.708 26.17 65.254 39.44 124.842 39.44 177.105 0 34.365-7.223 67.696-21.469 99.068-13.684 30.135-33.23 57.156-58.092 80.313-24.709 23.015-53.446 41.07-85.416 53.664-32.98 12.99-67.976 19.579-104.018 19.579-36.043 0-71.04-6.589-104.02-19.58-31.967-12.593-60.706-30.648-85.415-53.663-24.862-23.157-44.407-50.178-58.09-80.313-14.247-31.372-21.47-64.703-21.47-99.068 0-52.264 13.269-111.85 39.44-177.105 20.434-50.952 48.815-105.695 84.355-162.708a1473.727 1473.727 0 0 1 27.117-41.878c-37.374-4.422-71.868-10.96-101.664-19.403-31.907-9.042-57.784-20.123-76.913-32.938-37.658-25.229-45.563-54.502-45.563-74.615s7.905-49.386 45.562-74.615c19.129-12.815 45.006-23.898 76.914-32.938 59.392-16.83 137.445-26.099 219.786-26.099 82.339 0 160.394 9.27 219.785 26.099 31.907 9.04 57.784 20.123 76.913 32.938 37.659 25.229 45.563 54.502 45.563 74.615s-7.905 49.386-45.564 74.615zM511.706 697.759c66.177 0 119.84-53.661 119.84-119.838 0-66.178-53.662-119.839-119.84-119.839-66.176 0-119.839 53.661-119.839 119.839 0 66.177 53.662 119.838 119.839 119.838z m0.038-709.334c-160.769 0-291.097 36.93-291.097 82.486 0 37.221 87.008 68.678 206.532 78.945 34.14-46.973 59.66-76.7 61.278-78.576l23.249-26.96 23.25 26.96c1.617 1.876 27.14 31.607 61.282 78.582 119.56-10.26 206.603-41.723 206.603-78.95 0-45.557-130.33-82.487-291.097-82.487z"  horiz-adv-x="1024" />

    
    <glyph glyph-name="shoucang" unicode="&#58916;" d="M685.735 573.684L537.68 778.476c-5.54 7.798-13.992 12.094-22.693 12.4h-1.924c-0.142 0-0.252 0-0.362-0.025-8.735-0.31-17.212-4.636-22.716-12.461L341.672 572.443c-9.552-13.592-6.613-32.523 6.557-42.382 13.194-9.834 31.562-6.812 41.14 6.78l124.628 173.174 124.295-171.959c9.553-13.476 27.888-16.472 40.997-6.638 13.107 9.8 15.964 28.732 6.446 42.266z m89.143-582.059c0.197 0.14 0.42 0.311 0.62 0.453 0.11 0.08 0.197 0.168 0.308 0.226 6.839 5.392 11.164 13.87 11.02 23.45l-1.103 253.784c-0.252 16.614-13.786 30.206-30.202 30.428-16.445 0.198-29.56-13.052-29.302-29.665l0.938-213.352-201.632 66.06c-15.649 5.311-32.237-3.078-37.07-18.703-4.803-15.652 3.985-32.635 19.638-37.978l240.167-78.66c9.044-3.08 18.424-1.552 25.658 3.306 0.079 0.06 0.194 0.113 0.279 0.2 0.222 0.14 0.453 0.282 0.681 0.451z m160.256 493.313c-0.025 0.112-0.054 0.2-0.08 0.307-0.085 0.256-0.172 0.538-0.259 0.795a36.65 36.65 0 0 1-0.254 0.732c-0.05 0.112-0.085 0.228-0.14 0.368-3.025 8.196-9.746 14.917-18.903 17.715l-241.691 77.389c-15.88 4.892-32.972-3.759-38.284-19.295-5.285-15.597 3.278-32.127 19.156-37.014l203.207-65.044-125.14-171.32c-9.885-13.253-7.034-31.618 6.33-41.025 13.393-9.41 32.266-6.274 42.183 6.95l149.016 204.067c5.794 7.628 7.238 17.01 4.86 25.375zM539.997 104.36400000000003c-4.836 15.62-21.479 23.956-37.103 18.618L301.41 56.44399999999996l0.455 213.351c0.224 16.615-12.913 29.834-29.362 29.58-16.414-0.25-29.92-13.902-30.118-30.514l-0.48-253.786c-0.142-9.576 4.209-18.025 11.076-23.42 0.087-0.089 0.198-0.14 0.284-0.228 0.196-0.17 0.424-0.311 0.622-0.48 0.223-0.17 0.45-0.311 0.646-0.452 0.086-0.058 0.198-0.141 0.286-0.198 7.229-4.834 16.584-6.328 25.656-3.222l239.968 79.228c15.619 5.42 24.413 22.433 19.554 38.061zM391.852 562.6669999999999c-5.339 15.537-22.461 24.154-38.342 19.212l-241.52-77.956c-9.156-2.827-15.852-9.577-18.849-17.772-0.055-0.111-0.083-0.228-0.14-0.34-0.083-0.252-0.166-0.48-0.253-0.732-0.087-0.256-0.17-0.51-0.253-0.794l-0.086-0.34c-2.347-8.36-0.874-17.74 4.862-25.372l149.497-203.727c9.942-13.196 28.848-16.274 42.209-6.838 13.368 9.437 16.162 27.83 6.244 41.054l-125.536 171.04 203.07 65.521c15.877 4.888 24.412 21.473 19.097 37.044z"  horiz-adv-x="1024" />

    
    <glyph glyph-name="dingyue" unicode="&#58917;" d="M222.56 26.879999999999995c-10.08 0-19.68 5.28-24.48 14.88-6.72 13.44-1.44 30.24 12 36.96L490.4 222.24c0.96 0.48 1.44 0.96 2.4 0.96 12.48 6.24 28.32 6.24 41.28-0.48l1.92-0.96 278.88-143.52c13.44-6.72 18.72-23.52 12-36.96-6.72-13.44-23.52-18.72-36.96-12L513.44 171.84000000000003h-0.48L235.52 29.75999999999999c-4.8-1.92-9.12-2.88-12.96-2.88zM621.92 567.8399999999999H402.08c-15.36 0-27.36 12.48-27.36 27.36 0 15.36 12.48 27.36 27.36 27.36h219.84c15.36 0 27.36-12.48 27.36-27.36 0-15.36-12-27.36-27.36-27.36zM734.24 285.12H624.32c-15.36 0-27.36 12.48-27.36 27.36s12.48 27.36 27.36 27.36h109.92c15.36 0 27.36-12.48 27.36-27.36s-12-27.36-27.36-27.36zM679.52 229.91999999999996c-15.36 0-27.36 12.48-27.36 27.36V367.20000000000005c0 15.36 12.48 27.36 27.36 27.36s27.36-12.48 27.36-27.36v-109.92c0-14.88-12.48-27.36-27.36-27.36zM808.64 22.08000000000004c-15.36 0-27.36 12.48-27.36 27.36v597.6c0 7.68-6.24 13.92-13.92 13.92H256.64c-7.68 0-13.92-6.24-13.92-13.92v-597.12c0-15.36-12.48-27.36-27.36-27.36-15.36 0-27.36 12.48-27.36 27.36V647.04c0 37.92 30.72 68.64 68.64 68.64h510.72c37.92 0 68.64-30.72 68.64-68.64v-597.12c0-15.36-12-27.84-27.36-27.84z"  horiz-adv-x="1024" />

    
    <glyph glyph-name="xiazai" unicode="&#58918;" d="M598.4 413.6L552 367.20000000000005V490.4c0 21.6-16.8 37.6-37.6 37.6-21.6 0-37.6-16.8-37.6-37.6V368l-46.4 46.4c-14.4 13.6-40 14.4-53.6 0s-13.6-40 0-53.6l109.6-109.6c4-4.8 8.8-7.2 13.6-9.6h2.4c13.6-4 29.6-2.4 41.6 9.6l109.6 109.6c16 16 16 39.2 0.8 52.8-16.8 16-40 16-56 0zM768 484c-26.4 117.6-131.2 205.6-256.8 205.6-125.6 0-230.4-88-256.8-205.6-84.8-15.2-149.6-88.8-149.6-177.6 0-99.2 81.6-180.8 180.8-180.8H736c99.2 0 180.8 81.6 180.8 180.8 0.8 88-64 162.4-148.8 177.6z m-32.8-306.4H285.6c-68 0-124 56-124 124s56 124 124 124h6.4C302.4 536.8 396 624 510.4 624s208-87.2 218.4-198.4h6.4c68 0 124-56 124-124s-56-124-124-124z"  horiz-adv-x="1024" />

    
    <glyph glyph-name="yonghu" unicode="&#58919;" d="M582.353 327.11400000000003c-3.173 1.033-23.208 10.067-10.688 48.126h-0.173c32.628 33.603 57.568 87.704 57.568 140.946 0 81.881-54.454 124.788-117.728 124.788-63.31 0-117.455-42.908-117.455-124.788 0-53.458 24.803-107.775 57.627-141.296 12.792-33.563-10.086-46.02-14.873-47.776-66.27-23.963-144.01-67.648-144.01-110.771v-16.157c0-58.755 113.911-72.111 219.333-72.111 105.579 0 218.048 13.356 218.048 72.111v16.157c0 44.427-78.127 87.76-147.65 110.771z m0 0M511.308-62.89599999999996c-246.714 0-447.417 200.703-447.417 447.424 0 246.714 200.703 447.417 447.417 447.417 246.722 0 447.424-200.703 447.424-447.417 0-246.722-200.703-447.424-447.424-447.424z m0 830.637c-211.307 0-383.213-171.906-383.213-383.213 0-211.28 171.906-383.22 383.213-383.22 211.28 0 383.22 171.94 383.22 383.22 0 211.306-171.94 383.213-383.22 383.213z m0 0"  horiz-adv-x="1025" />

    
    <glyph glyph-name="sousuo" unicode="&#58920;" d="M931.311875 39.78281249999998c0-76.483125-76.483125-76.483125-76.483125-76.483125l-218.79375 218.7946875c-56.7459375-41.2284375-126.3534375-65.8284375-201.860625-65.8284375-190.0828125 0-344.1721875 154.089375-344.1721875 344.1721875S244.090625 804.6103125 434.1734375 804.6103125s344.1721875-154.089375 344.1721875-344.1721875c0-75.5071875-24.6009375-145.1109375-65.8284375-201.860625l218.7946875-218.7946875zM434.1734375 728.1271875c-147.8409375 0-267.69-119.848125-267.69-267.69s119.848125-267.69 267.69-267.69 267.69 119.848125 267.69 267.69-119.8490625 267.69-267.69 267.69z"  horiz-adv-x="1024" />

    
    <glyph glyph-name="fujian" unicode="&#58921;" d="M828.40625 628.96875a158.203125 158.203125 0 0 1-112.5 46.71386719h-0.15820313A157.79003906 157.79003906 0 0 1 603.52929688 629.21484375s-0.08789063-0.05273438-0.12304688-0.08789063L310.28222656 336.02929687000005a95.54589844 95.54589844 0 0 1 135.11425782-135.14062499L738.52050781 494.0390625a31.84277344 31.84277344 0 0 1-45.03515625 45.03515625L400.37890625 245.95019531000003a31.84277344 31.84277344 0 0 0-45.04394531 45.01757813l293.11523437 293.1328125a94.640625 94.640625 0 0 0 67.31542969 27.88769531h0.140625a95.59863281 95.59863281 0 0 0 67.67578125-163.01953125L484.54296875 149.92089843999997c-62.19140625-62.11230469-163.31835938-62.27050781-225.39550781-0.140625a159.51269531 159.51269531 0 0 0 0.15820312 225.37792968L558.1953125 674.0390625a31.84277344 31.84277344 0 1 1-45.03515625 45.03515625L214.27050781 420.19335938A222.9609375 222.9609375 0 0 1 529.578125 104.87695312000005l219.31347656 219.31347657c0.20214844 0.18457031 0.36914063 0.39550781 0.58007813 0.58007812l90.07910156 90.09667969a31.73730469 31.73730469 0 0 1 7.08398438 11.00390625A158.75683594 158.75683594 0 0 1 828.40625 628.96875z m0 0"  horiz-adv-x="1024" />

    
    <glyph glyph-name="fanhuidingbu" unicode="&#58922;" d="M806.52291026 616.91536403H217.29186802C200.07006661 616.91536403 186.11160469 630.87509897 186.11160469 648.09562735c0 17.22116489 13.95909843 31.18089983 31.18026333 31.18089983h589.23104224c17.21989188 0 31.17962682-13.95846192 31.17962683-31.18089983 0-17.22116489-13.96037144-31.18026333-31.17962683-31.18026332zM772.03984443 368.92702521L533.95927664 607.0056835a31.01477312 31.01477312 0 0 1-2.29331228 2.07308303c-0.34880242 0.28642535-0.71606337 0.53338765-1.07250381 0.80199097-0.45573456 0.34307393-0.9031946 0.69505883-1.37738767 1.01330922-0.43600303 0.29024435-0.88791857 0.54293515-1.33474212 0.8102655-0.42518251 0.25587331-0.84336352 0.52193063-1.28254905 0.75679941-0.45764405 0.24568929-0.92929113 0.45382506-1.39775571 0.67469082-0.45318855 0.21577376-0.90001209 0.44045853-1.36529414 0.63395476-0.45637105 0.18776773-0.92292611 0.33989141-1.3856622 0.50601812-0.49647061 0.17949323-0.9878492 0.37044345-1.4957768 0.52511313-0.46337257 0.13875716-0.93501963 0.24187029-1.4028477 0.35834994-0.51683862 0.13175566-1.02731225 0.27624133-1.55433489 0.38062746-0.54293515 0.10693213-1.09032583 0.17185521-1.63835298 0.25014481-0.45891706 0.06555957-0.91210561 0.15339668-1.37738768 0.19858823a31.20126785 31.20126785 0 0 1-6.15050695 0c-0.46655506-0.04455505-0.9191071-0.13366516-1.37866068-0.19858823-0.54739066-0.07892611-1.09478133-0.14321268-1.63898948-0.25014481-0.52638614-0.10438613-1.03622326-0.2495083-1.55306189-0.38062746-0.46910107-0.11711614-0.94011164-0.21895627-1.40348421-0.35834994-0.50920062-0.1546697-0.99930621-0.34561991-1.4970498-0.52511313-0.46209956-0.1661267-0.92801813-0.31825039-1.38311619-0.50601812-0.46655506-0.19349623-0.9140151-0.42072701-1.36720365-0.63522776-0.46846456-0.21959276-0.93947514-0.42709202-1.3971192-0.67341782-0.43854903-0.23486879-0.85609354-0.50092612-1.28191254-0.75743592-0.44682354-0.26669383-0.89873908-0.51874812-1.33474213-0.80962899-0.47419308-0.31761388-0.92165311-0.66959881-1.37738768-1.01394571-0.35644043-0.26796683-0.72433788-0.51556563-1.0718673-0.80199098a31.16689681 31.16689681 0 0 1-2.29522178-2.07244653l-238.07674878-238.07865828c-12.17689628-12.17689628-12.17689628-31.91860422 0-44.09550049s31.91796772-12.17625978 44.09486398 0l184.85764624 184.85637322v-387.69325677c0-17.21989188 13.95909843-31.18026333 31.18026332-31.18026332 17.22052838 0 31.18026333 13.96100793 31.18026332 31.18026332V509.68789795L727.94561695 324.83152472999996c6.08876639-6.09003938 14.06794006-9.13251308 22.04775024-9.13251309 7.97981017 0 15.95962035 3.04247369 22.04838674 9.13251309 12.17498677 12.17625978 12.17498677 31.91860422-0.00127299 44.09550048z"  horiz-adv-x="1040" />

    
    <glyph glyph-name="guanbi" unicode="&#58923;" d="M512 429.056l233.472 233.472a31.744 31.744 0 0 0 45.056-45.056L557.056 384l233.472-233.472a31.744 31.744 0 0 0-45.056-45.056L512 338.94399999999996 278.528 105.47199999999998a31.744 31.744 0 0 0-45.056 45.056L466.944 384 233.472 617.472a31.744 31.744 0 0 0 45.056 45.056z"  horiz-adv-x="1024" />

    
    <glyph glyph-name="bangzhu" unicode="&#58924;" d="M448 480a32 32 0 0 0-64 0 128 128 0 0 0 256 0 140.16 140.16 0 0 0-58.88-117.12l-10.24-8.96C550.08 335.67999999999995 544 326.72 544 312v-24a32 32 0 0 0-64 0v24a110.08 110.08 0 0 0 48.64 90.24l10.24 8.96A80 80 0 0 1 576 480a64 64 0 0 1-128 0z m96-288a32 32 0 1 0-32 32 32 32 0 0 0 32-32M896 384a384 384 0 1 1-384-384 384 384 0 0 1 384 384z m64 0A448 448 0 1 0 512 832a448 448 0 0 0 448-448z"  horiz-adv-x="1024" />

    
    <glyph glyph-name="boshimao" unicode="&#58925;" d="M967.11111111 535.552c0-6.03022222-2.84444445-10.12622222-8.64711111-12.288L515.98222222 384.22755555c-1.024-0.34133333-2.38933333-0.45511111-3.98222222-0.4551111s-2.84444445 0.11377778-3.98222222 0.4551111l-257.59288889 81.4648889c-11.264-8.98844445-20.70755555-23.66577778-27.98933334-44.032-7.39555555-20.36622222-11.83288889-43.91822222-13.42577777-70.54222223 16.61155555-9.44355555 24.80355555-23.89333333 24.80355555-43.008 0-18.20444445-7.62311111-32.31288889-22.86933333-42.21155555l22.86933333-171.008c0.56888889-3.64088889-0.56888889-6.94044445-3.18577778-9.78488889-2.38933333-2.84444445-5.57511111-4.32355555-9.44355555-4.32355556h-75.776c-3.98222222 0-7.168 1.47911111-9.44355555 4.32355556-2.61688889 2.84444445-3.64088889 6.144-3.18577778 9.78488889L155.87555555 265.89866667c-15.36 10.01244445-22.86933333 24.23466667-22.86933333 42.21155555 0 19.22844445 8.53333333 33.90577778 25.71377778 43.80444445 2.84444445 54.61333333 15.81511111 97.96266667 38.79822222 130.38933333l-131.75466667 40.96c-5.80266667 2.16177778-8.64711111 6.144-8.6471111 12.288 0 6.03022222 2.84444445 10.12622222 8.6471111 12.288l442.48177778 139.03644445c1.024 0.34133333 2.38933333 0.45511111 3.98222222 0.4551111s2.84444445-0.11377778 3.98222223-0.4551111L958.464 547.8399999999999c5.80266667-2.16177778 8.64711111-6.25777778 8.64711111-12.288zM757.76 407.552l7.168-124.81422222c1.024-18.20444445-9.67111111-35.04355555-32.42666667-50.63111111-22.75555555-15.47377778-53.58933333-27.76177778-92.84266666-36.97777778-39.25333333-9.10222222-81.69244445-13.65333333-127.54488889-13.65333334s-88.40533333 4.55111111-127.54488889 13.65333334c-39.25333333 9.10222222-70.08711111 21.27644445-92.84266667 36.97777778-22.75555555 15.47377778-33.45066667 32.42666667-32.42666667 50.63111111l7.168 124.81422222 226.75911112-71.56622222c5.80266667-1.93422222 12.17422222-2.73066667 19.00088888-2.73066667s13.19822222 0.79644445 19.0008889 2.73066667L757.76 407.552z"  horiz-adv-x="1024" />

    
    <glyph glyph-name="jiantou" unicode="&#58926;" d="M691.51605224 384c0-11.28927612-4.31103516-22.57855224-12.9092102-31.18496704L407.76309204 81.97952270999997c-17.22930908-17.22930908-45.15710449-17.22930908-62.37817383 0-17.22106934 17.22106934-17.22106934 45.14886474 0 62.3789978L585.03463744 384l-239.64147948 239.64147949c-17.22106934 17.22930908-17.22106934 45.15792847 0 62.3789978 17.22106934 17.22930908 45.14886474 17.22930908 62.37817383 0L678.61590576 415.18496704c8.59817505-8.60641479 12.90097046-19.89569092 12.90097046-31.18496704z"  horiz-adv-x="1024" />

    
    <glyph glyph-name="jiantou1" unicode="&#58927;" d="M246.4 555.2h533.6c28 0 41.6-33.6 22.4-53.6L535.2 235.20000000000005c-12-12-32-12-44 0L224.8 501.6c-20 20-6.4 53.6 21.6 53.6z"  horiz-adv-x="1024" />

    
    <glyph glyph-name="shijian" unicode="&#58928;" d="M512.943125-35.83218750000003c-112.6153125 0-218.4853125 43.854375-298.1184375 123.481875C135.185 167.28750000000002 91.330625 273.1640625 91.330625 385.7803125c0 112.6171875 43.854375 218.48625 123.4940625 298.119375 79.62 79.6265625 185.503125 123.4828125 298.1184375 123.4828125 112.605 0 218.48625-43.8553125 298.1203125-123.481875 164.3878125-164.394375 164.375625-431.8696875 0-596.244375-79.6340625-79.6340625-185.503125-123.4884375-298.1203125-123.4884375z m0 767.56875c-92.4121875 0-179.296875-35.9859375-244.6359375-101.325-65.3446875-65.345625-101.3325-152.2246875-101.3325-244.63125 0-92.413125 35.9878125-179.2903125 101.3315625-244.6425 65.3521875-65.338125 152.22375-101.325 244.6359375-101.325 92.413125 0 179.285625 35.986875 244.6378125 101.3315625 134.8875 134.8828125 134.8875 354.3665625 0 489.2671875-65.35125 65.3390625-152.235 101.325-244.636875 101.325zM513.4128125 331.44375c-20.8940625 0-37.8225 16.9340625-37.8225 37.820625v210.58125c0 20.8875 16.9284375 37.8234375 37.8225 37.8234375 20.8921875 0 37.8225-16.9359375 37.8225-37.8225v-210.5821875c-0.0009375-20.8875-16.9303125-37.8215625-37.8225-37.8215625zM401.2625 211.06875000000002c-9.676875 0-19.35375 3.69375-26.7403125 11.0746875-14.775 14.7740625-14.775 38.7215625 0 53.4890625l112.1475 112.1625c14.7496875 14.773125 38.709375 14.7675 53.4825 0.0046875 14.775-14.7740625 14.775-38.7196875 0-53.4890625L428.0046875 222.14999999999998c-7.374375-7.3875-17.064375-11.08125-26.7421875-11.08125z"  horiz-adv-x="1024" />

    
    <glyph glyph-name="dianhua1" unicode="&#58929;" d="M862.656 111.29600000000005c-15.04-54.176-113.6-98.048-221.088-71.2-108 26.912-216.192 83.904-303.232 170.336-86.304 86.88-143.36 195.04-170.272 303.136-26.816 107.52 17.024 205.952 71.168 221.088 13.856 3.84 69.824 9.984 154.208-140.416 24.064-43.328 5.568-41.248-48.352-129.12-25.216-41.056 16.096-96.832 16.096-96.832s28.064-44.16 59.52-75.68c31.424-31.552 75.648-59.456 75.648-59.456s55.776-41.184 96.832-16.192c87.936 53.856 85.824 72.544 128.928 48.288C872.64 180.928 866.4 125.024 862.656 111.29600000000005z m0 0"  horiz-adv-x="1024" />

    
    <glyph glyph-name="jiantou2" unicode="&#58930;" d="M512 226.22221972c-9.92221534 0-19.84443067 3.78899574-27.40866244 11.34598552L246.55231488 475.61446988c-15.14294743 15.14294743-15.14294743 39.68886137 0 54.82456685 15.13570548 15.13570548 39.6816194 15.13570548 54.82529104 0L512 319.80940067999995l210.62239408 210.62239408c15.14294743 15.13570548 39.68958557 15.13570548 54.82529104 0 15.14294743-15.13570548 15.14294743-39.6816194 0-54.82456684L539.40866244 237.56023907999997c-7.56423175-7.55698979-17.4864471-11.33874357-27.40866244-11.33874357z"  horiz-adv-x="1024" />

    
    <glyph glyph-name="jiantou3" unicode="&#58931;" d="M512 541.77778028c9.92221534 0 19.84443067-3.78899574 27.40866244-11.34598552L777.44768512 292.38553012c15.14294743-15.14294743 15.14294743-39.68886137 0-54.82456685-15.13570548-15.13570548-39.6816194-15.13570548-54.82529104 0L512 448.19059932l-210.62239408-210.62239408c-15.14294743-15.13570548-39.68958557-15.13570548-54.82529103 0-15.14294743 15.13570548-15.14294743 39.6816194-1e-8 54.82456684L484.59133756 530.43976092c7.56423175 7.55698979 17.4864471 11.33874357 27.40866244 11.33874357z"  horiz-adv-x="1024" />

    
    <glyph glyph-name="xianshi" unicode="&#58932;" d="M828.31396484 384.98135376h-0.10217285c-50.72387695 130.76889038-173.08740234 223.0779419-316.22497558 223.07794189-143.11203003 0-265.48791504-92.30987549-316.211792-223.07794189h-0.0906372c0.01318359-0.0519104 0.02554321-0.09063721 0.0519104-0.12771607a0.43917847 0.43917847 0 0 1-0.0519104-0.11700439h0.0906372c50.72387695-131.79144287 173.08740234-224.79510498 316.211792-224.79510498 143.13757324 0 265.50109864 93.00448609 316.22497558 224.79510498h0.10217285c-0.02554321 0.0387268-0.03790283 0.07827758-0.05191039 0.11700439 0.01400757 0.03790283 0.02636719 0.07580566 0.05191039 0.12771607zM511.98681641 204.96267699999999c-119.02972412 0-221.50909424 73.62213135-269.50314331 179.89013672 47.99487305 105.47698974 150.47341919 178.55859375 269.50314331 178.55859375 119.04290771 0 221.52062988-73.08160401 269.52868652-178.55776977-48.00805664-106.26965332-150.48577881-179.89013672-269.52868652-179.89013673zM604.10388184 436.80029297c0-29.08795166-23.60440063-52.69317627-52.71789551-52.69317627-29.12750244 0-52.71954346 23.60522461-52.71954346 52.69317627s23.59204102 52.69317627 52.71871948 52.69317627c0.14584351 0 0.29003906-0.00988769 0.43670655-0.01071167-12.39505005 4.61425781-25.81100464 7.14138794-39.8218689 7.14138793-62.83465576 0-113.77770997-50.73706055-113.77770997-113.34100341 0-62.61053467 50.9430542-113.34759521 113.77770997-113.34759522 62.83630372 0 113.77853393 50.73706055 113.77853393 113.34759522 0 26.45617676-9.09915161 50.79391479-24.3484497 70.07904053a52.56134033 52.56134033 0 0 0 2.6737976-16.56188965z"  horiz-adv-x="1024" />

    
    <glyph glyph-name="guanbi1" unicode="&#58933;" d="M779.33032428 384c0 148.94118067-118.38914361 267.33032428-267.33032428 267.33032428S244.66967572 532.94118067 244.66967572 384s118.38914361-267.33032428 267.33032428-267.33032428 267.33032428 118.38914361 267.33032428 267.33032428zM618.93212971 250.33483787L512 357.26696757 405.06787029 250.33483787c-7.63800925-7.63800925-19.09502317-7.63800925-26.73303242 0-7.63800925 7.63800925-7.63800925 19.09502317 0 26.73303242L485.26696757 384 378.33483787 490.93212971c-7.63800925 7.63800925-7.63800925 19.09502317 0 26.73303242 7.63800925 7.63800925 19.09502317 7.63800925 26.73303242 0L512 410.73303243 618.93212971 517.66516213c7.63800925 7.63800925 19.09502317 7.63800925 26.73303242 0 7.63800925-7.63800925 7.63800925-19.09502317 0-26.73303242L538.73303243 384 645.66516213 277.06787029c7.63800925-7.63800925 7.63800925-19.09502317 0-26.73303242-7.63800925-7.63800925-19.09502317-7.63800925-26.73303242 0z"  horiz-adv-x="1024" />

    
    <glyph glyph-name="xuanzhongdingyue" unicode="&#58934;" d="M767 715.50000001H257c-38.25 0-69-30.75-69-69.00000002v-597c0-15 12-27 27-27 6.75 0 12.75 2.25 17.25000001 6 0.75 0 2.25 0.75 2.99999999 0.75000001l277.5 141.75h0.74999999l276.75000001-142.50000001h0.75c4.50000001-4.50000001 11.25-6.75 18-6.74999999 15 0 27 12.75 27 27.74999999V647.25c0 37.50000001-30.75 68.25-69 68.25000001zM401.75 567.74999999c-15 0-27 12.75-27 27.00000001 0 15 12.75 27 27 27h219.74999999c15 0 27-12.75 27.00000002-27 0-15-12-27-27-27.00000001H401.75z m332.25-282.74999999H707v-27.75c0-15-12.75-27-27.00000001-27-15 0-27 12.75-26.99999999 27v27.75H624.50000001c-15 0-27 12.75-27.00000002 26.99999999S610.25 339 624.50000001 339h27.74999999v27c0 15 12.75 27 27 27s27-12.75 27-27V339h27c15 0 27-12.75 27.00000001-27.00000001s-10.50000001-27-26.25000001-26.99999999z"  horiz-adv-x="1024" />

    
    <glyph glyph-name="xuanzhongshoucang" unicode="&#58935;" d="M935.2 484.80000001v0.79999999 0.8c-3.2 8.00000001-9.6 15.2-19.2 17.59999999l-234.4 75.20000001-144 199.2c-5.6 8.00000001-13.6 12-22.4 12.8h-0.8-0.79999999c-8.8 0-17.60000001-4.80000001-22.4-12.8l-144-198.4L112 504.00000001c-8.8-3.2-16-9.6-19.2-17.60000001v-1.60000001c-2.4-8.00000001-0.8-17.60000001 4.80000001-25.6l144.79999999-197.59999999-0.79999999-245.6c0-9.6 4-18.4 11.19999999-23.2 0 0 0.8 0 0.8-0.80000001 0 0 0.8 0 0.80000001-0.79999999 7.2-4.80000001 16.8-6.4 25.6-3.2l233.59999998 77.59999999 233.60000002-76.8c8.8-3.2 18.4-1.60000001 25.59999998 3.2 0 0 0.8 0 0.80000001 0.80000001 0 0 0.8 0 0.8 0.8 7.2 5.6 11.20000001 13.6 11.19999999 23.2l-0.79999999 245.6 144.79999999 197.6c6.4 7.2 8.00000001 16.8 5.60000001 24.80000001z"  horiz-adv-x="1024" />

    
    <glyph glyph-name="yincang" unicode="&#58936;" d="M843.1199646 478.87243653c9.68994141 12.11819458 7.71240234 29.80728149-4.39096069 39.49639892-12.13137818 9.70230102-29.78009033 7.69921875-39.52359009-4.39178467-1.01513672-1.28952026-106.08343506-129.97375489-287.2062378-129.97375489-180.10684204 0-286.21746826 128.72543335-287.20623779 129.97375489-9.71548462 12.09100342-27.36419677 14.10891724-39.52359008 4.39178467-12.10418701-9.68911743-14.08007813-27.37820435-4.39178468-39.49639892 1.74188232-2.17694092 17.84729004-21.69113159 46.70617676-45.91186524l-49.28604125-60.06115723 43.44900512-35.65338135 51.07241822 62.23727417c21.18438721-13.76861573 45.85830688-27.30981445 73.91299438-38.89572143l-28.28952027-78.29077149 52.86291505-19.10302734 28.69079589 79.40148926c25.83737182-6.93045044 53.87145997-11.66748047 83.89709473-13.59640503v-85.52526856h56.21154785V328.99887085c30.61148071 1.96765136 59.11935425 6.88842773 85.37612915 14.03393555l28.9956665-79.31744385 52.78051758 19.30902099-28.55319214 78.10702515c26.6168518 11.09893799 50.03585815 23.98013305 70.42181397 37.0829773l50.76507569-62.65667725 43.66900634 35.39300537-48.97952271 60.45501709c30.06188964 24.95159912 46.76138305 45.24362182 48.54034424 47.46670533z"  horiz-adv-x="1024" />

    
    <glyph glyph-name="xuanzhongxiazai" unicode="&#58937;" d="M763.2 484C736.8 601.6 632 689.6 506.4 689.6s-230.4-88-256.8-205.6c-84.8-15.2-149.6-88.8-149.6-177.6 0-99.2 81.6-180.8 180.8-180.8h450.4c99.2 0 180.8 81.6 180.8 180.8 0.8 88-64 162.4-148.8 177.6zM649.6 360.79999999999995L540 251.20000000000005c-12-12-28-13.6-41.6-9.6H496c-4.8 2.4-9.6 4.8-13.6 9.6L372.8 360.79999999999995c-13.6 13.6-13.6 39.2 0 53.6 13.6 13.6 39.2 13.6 53.6 0l46.4-46.4V491.2c0 20.8 16 37.6 37.6 37.6 20.8 0 37.6-16 37.6-37.6V368l46.4 46.4c16 16 39.2 16 56 0 15.2-14.4 15.2-37.6-0.8-53.6z"  horiz-adv-x="1024" />

    


  </font>
</defs>
</svg>
